# xmcd
#
# Track frame offsets:
#	182
#	13775
#	28022
#	41512
#	57572
#	73172
#	87387
#	101192
#	114825
#	128825
#	141857
#	157350
#	170115
#	185705
#	197607
#	211860
#	225457
#	237397
#	250822
#	264385
#	278002
#	291982
#	303592
#	316557
#	328567
#
# Disc length: 4550 seconds
#
# Revision: 0
# Processed by: cddbd v1.4PL0 Copyright (c) Steve Scherf et al.
# Submitted via: audiograbber 1.81.03
#
DISCID=7611c419
DTITLE=Various Artist - Good Morning Blues [CD 3] - Blues Before Sunrise
DYEAR=1995
DGENRE=Blues
TTITLE0=Skip James - Devil's Got My Woman
TTITLE1=King Solomon Hill - Whoopee Blues
TTITLE2=Peetie Wheatstraw - Police Station Blues
TTITLE3=Leroy Carr - Blues Before Sunrise
TTITLE4=Tampa Red - Black Angels Blues
TTITLE5=Kokomo Arnold - Milk Cow Blues
TTITLE6=Lucille Bogan - Shave 'Em Dry
TTITLE7=Blind Gary Davis - Cross And Evil Woman Blues
TTITLE8=Blind Boy Fuller - Rag Mama Rag
TTITLE9=Carl Martin - Crow Jane
TTITLE10=Big Joe Williams - Baby, Please Don't Go
TTITLE11=Red Nelson - Streamline Train
TTITLE12=Walter Davis - Think You Need A Shot
TTITLE13=Harlem Hamfats - Oh! Red
TTITLE14=Casey Bill Weldon - You Just As Well Let Her Go
TTITLE15=Johnnie Temple - Louise Louise Blues
TTITLE16=Bumble Bee Slim - Rough Treatment
TTITLE17=Robert Johnson - I Believe I'll Dust My Broom
TTITLE18=Sonny Boy Williamson - Good Morning School Girl
TTITLE19=Bukka White - Shake 'Em Down
TTITLE20=Curtis Jones - Lonesome Bedroom Blues
TTITLE21=Buddy Woods - Don't Sell It, Don't Give It Away
TTITLE22=Jimmie Gordon - Number Runner's Blues
TTITLE23=Georgia White - The Blues Ain't Nothing But
TTITLE24=Joe Turner - Roll 'Em Pete
EXTD=
EXTT0=
EXTT1=
EXTT2=
EXTT3=
EXTT4=
EXTT5=
EXTT6=
EXTT7=
EXTT8=
EXTT9=
EXTT10=
EXTT11=
EXTT12=
EXTT13=
EXTT14=
EXTT15=
EXTT16=
EXTT17=
EXTT18=
EXTT19=
EXTT20=
EXTT21=
EXTT22=
EXTT23=
EXTT24=
PLAYORDER=
